PathFileType	4	(X/Y/Z)	C:/Users/opensim2020/Desktop/walking_exp_matlab/subject03_walking05_straight_01.trc	
DataRate	CameraRate	NumFrames	NumMarkers	Units	OrigDataRate	OrigDataStartFrame	OrigNumFrames	
100.00	100.00	7	45	mm	100.00	801	298	
Frame#	Time	LFHD			RFHD			LBHD			RBHD			C7			T10			CLAV			STRN			RBAK			LSHO			LUPA			LELB			LFRM			LWRA			LWRB			LFIN			RSHO			RUPA			RELB			RFRM			RWRA			RWRB			RFIN			LASI			RASI			LPSI			RPSI			LTHI			LKNE			LTIB			LANK			LHEE			LTOE			RTHI			RKNE			RTIB			RANK			RHEE			RTOE			*39			*40			*41			*42			*43			*44			
		X1	Y1	Z1	X2	Y2	Z2	X3	Y3	Z3	X4	Y4	Z4	X5	Y5	Z5	X6	Y6	Z6	X7	Y7	Z7	X8	Y8	Z8	X9	Y9	Z9	X10	Y10	Z10	X11	Y11	Z11	X12	Y12	Z12	X13	Y13	Z13	X14	Y14	Z14	X15	Y15	Z15	X16	Y16	Z16	X17	Y17	Z17	X18	Y18	Z18	X19	Y19	Z19	X20	Y20	Z20	X21	Y21	Z21	X22	Y22	Z22	X23	Y23	Z23	X24	Y24	Z24	X25	Y25	Z25	X26	Y26	Z26	X27	Y27	Z27	X28	Y28	Z28	X29	Y29	Z29	X30	Y30	Z30	X31	Y31	Z31	X32	Y32	Z32	X33	Y33	Z33	X34	Y34	Z34	X35	Y35	Z35	X36	Y36	Z36	X37	Y37	Z37	X38	Y38	Z38	X39	Y39	Z39	X40	Y40	Z40	X41	Y41	Z41	X42	Y42	Z42	X43	Y43	Z43	X44	Y44	Z44	X45	Y45	Z45	

75	0.740	-1052.06201	-653.85010	1608.42261	-920.78369	-676.94684	1611.32886	-1069.82019	-777.97516	1557.59473	-939.64063	-796.12146	1560.25110	-1014.06036	-808.70453	1401.19568	-1018.63196	-844.17444	1088.15869	-1002.39404	-688.35736	1323.32666	-1011.42078	-644.80017	1157.98242	-927.98090	-869.19928	1222.10645	-1158.74792	-714.31268	1367.19775	-1241.37134	-677.64777	1184.55811	-1256.07031	-625.25635	1076.76672	-1235.88379	-525.48065	1002.29688	-1183.77185	-436.45142	938.41278	-1234.88184	-446.72064	919.96582	-1211.79407	-375.45132	883.33655	-847.21613	-748.68658	1341.66174	-779.15802	-760.02271	1118.20117	-764.75934	-747.96698	1005.58813	-762.12848	-734.80524	869.03094	-794.44733	-703.50311	773.33276	-754.66498	-739.49005	768.65387	-764.30548	-719.84845	696.35339	-1132.34692	-677.14038	918.88800	-892.85699	-673.39105	928.22089	-1078.53918	-839.15405	941.30774	-930.07074	-836.03400	951.85681	-1163.85181	-769.08209	619.68127	-1129.97559	-804.25940	443.51627	-1134.14966	-934.68982	287.59702	-1097.08508	-1054.71228	116.51618	-1064.02209	-1109.34265	102.69672	-1067.30676	-935.03217	28.37795	-848.13116	-673.47540	639.97137	-883.01178	-614.98657	468.54843	-874.32709	-606.58936	281.42886	-915.71881	-569.49097	67.27358	-967.43512	-610.93103	34.55022	-934.84753	-425.88699	35.04917																		 
76	0.750	-1051.20752	-643.87134	1609.68091	-919.83362	-666.59131	1612.65894	-1068.61157	-768.07764	1558.84436	-938.31287	-785.84210	1561.59570	-1012.59100	-798.49573	1402.37158	-1018.19104	-833.37317	1089.06946	-1001.35681	-678.16150	1324.76416	-1010.44525	-634.13153	1159.54382	-926.50299	-858.63855	1222.95837	-1157.66919	-704.62567	1368.24438	-1240.13208	-669.52814	1184.98828	-1254.91943	-618.07300	1076.71912	-1234.93335	-518.50079	1001.85492	-1182.82800	-429.56250	937.96576	-1233.79028	-440.15067	919.20288	-1211.11902	-368.77167	882.90497	-845.97748	-738.04999	1342.74609	-778.13196	-748.54108	1119.11938	-763.93628	-736.27856	1006.50171	-761.41803	-723.65723	870.09674	-794.20123	-692.03278	774.27838	-754.11725	-727.79498	769.51599	-764.33459	-708.42706	697.17340	-1131.09644	-665.57483	919.56268	-891.63672	-662.24561	930.49963	-1077.84106	-828.05402	941.56708	-929.44702	-824.83179	953.62152	-1163.08337	-754.74738	619.23022	-1130.46655	-788.33295	442.67657	-1134.19275	-923.74579	290.35730	-1096.43054	-1048.63025	123.20403	-1062.59082	-1103.11377	112.02287	-1066.71973	-934.28833	28.27549	-847.66266	-664.62903	641.62299	-882.97784	-606.33887	469.89630	-874.65350	-600.77435	282.12894	-916.66284	-568.82123	67.39737	-967.85248	-610.91455	34.51404	-936.41211	-425.23654	34.52108	-1013.66858	-738.06042	1664.18469															 
77	0.760	-1050.31616	-633.92493	1611.03320	-918.90948	-656.24597	1614.06458	-1067.20959	-758.14362	1560.21545	-936.92944	-775.60431	1563.10999	-1011.09650	-788.33276	1403.72192	-1017.74725	-822.75964	1090.25464	-1000.33710	-667.90283	1326.28760	-1009.49066	-623.57092	1161.20215	-925.07074	-848.01306	1223.99377	-1156.67578	-694.93793	1369.67786	-1238.98657	-661.39038	1185.62427	-1253.95642	-610.95483	1076.95276	-1233.86890	-511.86642	1001.31433	-1182.06848	-423.21231	937.06891	-1232.82300	-434.23795	918.05347	-1210.69556	-362.77130	881.82190	-844.76294	-727.37604	1344.09912	-777.13525	-736.95990	1120.38318	-763.10651	-724.70941	1007.76208	-760.79346	-711.81683	871.34814	-793.76190	-679.85199	775.57062	-753.51202	-715.80811	770.76154	-764.04486	-696.35486	698.38623	-1129.81909	-654.19653	920.49622	-890.55774	-651.08899	932.99365	-1077.17358	-816.46387	942.03528	-928.90076	-813.67346	955.62030	-1162.54468	-739.93805	618.82886	-1131.39380	-771.36829	441.78619	-1134.04663	-911.61414	293.32013	-1095.25830	-1041.21741	130.52246	-1060.72363	-1095.22534	122.07064	-1066.09399	-933.40491	27.90978	-846.71100	-655.92194	643.15869	-882.80054	-597.64240	471.40201	-874.81586	-595.91791	282.83539	-917.14471	-568.16577	67.67101	-968.29138	-610.75806	34.80815	-936.72162	-424.69949	34.28838	-1012.24359	-728.00903	1665.41846															 
78	0.770	-1049.32751	-623.95105	1612.32288	-917.92383	-645.94507	1615.47607	-1065.94055	-748.23712	1561.60522	-935.63989	-765.22711	1564.49487	-1009.66138	-778.21289	1405.01123	-1017.21899	-812.28436	1091.49841	-999.24176	-657.70325	1327.80994	-1008.54230	-613.07086	1162.82410	-923.60492	-837.40485	1225.10083	-1155.60608	-685.28406	1371.32922	-1237.53467	-653.20990	1186.54321	-1252.23840	-603.94684	1077.33630	-1232.70129	-505.60938	1000.64374	-1181.25195	-417.02689	936.05725	-1232.03406	-428.84656	916.54669	-1210.32104	-357.55283	880.02808	-843.60071	-716.76801	1345.71204	-776.17194	-725.26978	1121.88208	-762.37891	-712.82739	1009.25684	-760.25677	-699.68732	872.86407	-793.86310	-668.07239	777.08453	-752.94281	-703.25757	772.34406	-763.84546	-683.88391	699.89563	-1127.96814	-642.37335	921.52252	-889.55743	-640.01105	935.56171	-1076.49707	-805.00482	942.66064	-928.39636	-802.57227	957.74896	-1162.25439	-724.77051	618.46198	-1132.93689	-753.47784	440.88336	-1133.93469	-898.37433	296.49286	-1093.73230	-1032.44531	138.16135	-1058.24988	-1085.51404	132.70416	-1065.38843	-932.06897	27.74147	-846.00183	-647.48572	644.83527	-882.08289	-589.75732	472.59293	-874.22937	-591.63989	283.46518	-917.25598	-567.81201	67.78271	-968.36847	-610.64392	34.88223	-936.41241	-424.41898	34.06301	-1011.14349	-717.77313	1666.79797															 
79	0.780	-1048.47668	-613.98230	1613.53516	-916.98389	-635.61877	1616.64404	-1064.70483	-738.29352	1562.84778	-934.38623	-754.90863	1565.76221	-1008.31476	-768.15179	1406.18127	-1016.61322	-802.03809	1092.70325	-998.20203	-647.48773	1329.20154	-1007.59839	-602.67999	1164.31616	-922.15155	-826.68408	1226.14185	-1154.31921	-675.65594	1372.94507	-1236.12219	-644.95813	1187.70081	-1250.68372	-597.06061	1077.82654	-1231.69141	-499.60861	999.98358	-1180.67078	-411.56342	934.31415	-1231.29395	-423.95547	914.74603	-1210.05811	-352.93512	877.47406	-842.46429	-706.09717	1347.30066	-775.17871	-713.62213	1123.45764	-761.70105	-700.56299	1010.88263	-759.78748	-687.18494	874.53424	-794.09192	-656.07953	778.73260	-752.35510	-690.35101	774.09045	-763.61450	-671.03851	701.45911	-1126.46729	-631.34619	922.66736	-888.65472	-629.07141	937.97931	-1075.93250	-793.69037	943.38586	-927.85736	-791.57739	959.82031	-1162.27332	-709.39954	618.05933	-1134.89441	-734.83594	439.93314	-1133.79871	-883.92249	299.79660	-1092.03467	-1022.12238	145.90440	-1055.28162	-1073.81433	143.56978	-1065.01050	-930.66187	27.53209	-844.19000	-638.11902	646.11328	-880.66064	-582.98242	473.44586	-873.26324	-588.10822	283.71204	-917.27484	-567.73743	67.85828	-968.17383	-610.55701	34.80365	-936.35101	-424.32434	33.91793	-1009.89020	-707.68915	1668.05688															 
80	0.790	-1047.59778	-604.01611	1614.47070	-915.97925	-625.15601	1617.81787	-1063.81494	-728.59863	1564.01355	-933.19080	-744.72852	1566.71912	-1006.92926	-758.19690	1407.05127	-1015.82306	-791.68835	1093.60559	-997.28906	-637.24847	1330.44946	-1006.75232	-592.25745	1165.68103	-920.64972	-815.96979	1227.13220	-1153.18738	-666.04529	1374.59790	-1234.61877	-636.63849	1188.82373	-1248.92969	-590.24146	1078.47009	-1230.57666	-493.87247	999.04364	-1180.25195	-406.45392	932.13611	-1230.77332	-419.44397	912.66974	-1209.84692	-348.89917	874.15228	-841.55511	-695.39111	1348.83691	-774.12683	-702.08685	1125.04553	-761.01312	-688.47656	1012.49597	-759.37079	-674.34283	876.22375	-794.43713	-643.46838	780.58667	-751.78333	-676.79492	775.89728	-763.13287	-658.02960	703.30353	-1125.17163	-620.52936	923.62231	-887.74182	-618.36267	940.08069	-1075.17981	-782.79968	944.18231	-927.18152	-780.67029	961.77368	-1162.61987	-694.01788	617.56860	-1137.35876	-715.64581	438.97327	-1133.81250	-868.38104	303.19754	-1090.30847	-1009.76123	153.40683	-1052.32654	-1060.28687	154.21426	-1064.77100	-929.42102	27.12062	-840.65948	-628.34381	647.47003	-878.90631	-576.74786	474.05191	-872.28217	-584.94000	283.87030	-917.50970	-567.86395	68.03399	-968.12848	-610.72028	34.97406	-936.14893	-424.26074	33.78116																		 
81	0.800	-1046.73352	-594.10370	1615.09497	-915.02362	-615.08179	1618.38940	-1062.44812	-718.50555	1564.54224	-932.09729	-734.54688	1567.37415	-1005.64111	-748.31940	1407.70129	-1014.89270	-781.47516	1094.33069	-996.39600	-627.11890	1331.33777	-1006.03577	-581.93677	1166.74072	-919.10242	-805.24097	1228.11438	-1151.82617	-656.57123	1375.91577	-1233.11597	-628.28961	1189.88879	-1246.81812	-583.73383	1078.48877	-1229.64697	-488.37656	997.87616	-1180.07129	-401.92859	929.11401	-1230.43164	-415.18896	910.29352	-1209.62073	-345.31763	870.07269	-840.56421	-684.64014	1350.18750	-772.98114	-690.57745	1126.42334	-760.30536	-676.11420	1013.97046	-758.98260	-661.14478	877.77594	-794.97803	-631.15656	782.22736	-751.21045	-662.94861	777.55261	-763.65143	-643.64600	704.80481	-1123.71106	-610.02478	924.45715	-886.84503	-607.90985	941.82050	-1074.30151	-772.22217	945.07587	-926.35156	-769.93872	963.55225	-1163.08069	-678.67346	616.91205	-1138.80688	-695.96191	437.92572	-1133.16516	-852.15625	306.39264	-1089.47656	-996.68085	160.02995	-1049.58289	-1045.19153	164.75562	-1064.84070	-927.07385	27.23795	-839.45496	-620.10211	648.50061	-877.26654	-570.87268	474.42874	-871.15039	-581.64514	284.02823	-917.27881	-567.97314	68.08775	-967.75806	-610.55573	34.85133	-936.03162	-424.09509	33.59132	-1007.88983	-687.41168	1669.68115															 
